M48
; DRILL file {KiCad (6.0.0)} date Sat Mar 26 12:47:27 2022
; FORMAT={-:-/ absolute / inch / decimal}
; #@! TF.CreationDate,2022-03-26T12:47:27-04:00
; #@! TF.GenerationSoftware,Kicad,Pcbnew,(6.0.0)
; #@! TF.FileFunction,Plated,1,2,PTH
FMAT,2
INCH
; #@! TA.AperFunction,Plated,PTH,ViaDrill
T1C0.0157
%
G90
G05
T1
X4.7Y-3.45
X4.7Y-4.25
X4.85Y-3.05
X4.85Y-4.65
X5.1544Y-3.4
X5.25Y-3.2
X5.25Y-3.4
X5.3483Y-3.1
X5.4Y-3.45
X5.4Y-3.6
X5.45Y-3.35
X5.4574Y-3.1476
X5.5Y-3.05
X5.5Y-3.1215
X5.5Y-3.1785
X5.5Y-3.3
X5.55Y-3.4
X5.75Y-3.05
X6.85Y-3.25
X6.85Y-3.45
X6.85Y-4.25
X7.0Y-3.05
X7.0Y-4.65
T0
M30
