%TF.GenerationSoftware,KiCad,Pcbnew,(6.0.0)*%
%TF.CreationDate,2022-03-26T12:46:50-04:00*%
%TF.ProjectId,old,6f6c642e-6b69-4636-9164-5f7063625858,rev?*%
%TF.SameCoordinates,Original*%
%TF.FileFunction,Soldermask,Bot*%
%TF.FilePolarity,Negative*%
%FSLAX46Y46*%
G04 Gerber Fmt 4.6, Leading zero omitted, Abs format (unit mm)*
G04 Created by KiCad (PCBNEW (6.0.0)) date 2022-03-26 12:46:50*
%MOMM*%
%LPD*%
G01*
G04 APERTURE LIST*
G04 Aperture macros list*
%AMRoundRect*
0 Rectangle with rounded corners*
0 $1 Rounding radius*
0 $2 $3 $4 $5 $6 $7 $8 $9 X,Y pos of 4 corners*
0 Add a 4 corners polygon primitive as box body*
4,1,4,$2,$3,$4,$5,$6,$7,$8,$9,$2,$3,0*
0 Add four circle primitives for the rounded corners*
1,1,$1+$1,$2,$3*
1,1,$1+$1,$4,$5*
1,1,$1+$1,$6,$7*
1,1,$1+$1,$8,$9*
0 Add four rect primitives between the rounded corners*
20,1,$1+$1,$2,$3,$4,$5,0*
20,1,$1+$1,$4,$5,$6,$7,0*
20,1,$1+$1,$6,$7,$8,$9,0*
20,1,$1+$1,$8,$9,$2,$3,0*%
G04 Aperture macros list end*
%ADD10R,5.620000X2.000000*%
%ADD11R,2.500000X2.500000*%
%ADD12C,0.900000*%
%ADD13R,0.700000X1.500000*%
%ADD14R,1.000000X0.800000*%
%ADD15RoundRect,0.250000X0.400000X0.625000X-0.400000X0.625000X-0.400000X-0.625000X0.400000X-0.625000X0*%
%ADD16RoundRect,0.250000X0.412500X0.650000X-0.412500X0.650000X-0.412500X-0.650000X0.412500X-0.650000X0*%
%ADD17RoundRect,0.250001X0.462499X0.624999X-0.462499X0.624999X-0.462499X-0.624999X0.462499X-0.624999X0*%
%ADD18RoundRect,0.250000X-0.412500X-0.650000X0.412500X-0.650000X0.412500X0.650000X-0.412500X0.650000X0*%
%ADD19RoundRect,0.250000X-0.400000X-0.625000X0.400000X-0.625000X0.400000X0.625000X-0.400000X0.625000X0*%
%ADD20R,2.600000X3.500000*%
%ADD21R,1.600000X0.550000*%
%ADD22R,0.550000X1.600000*%
G04 APERTURE END LIST*
D10*
%TO.C,Y1*%
X145697500Y-80010000D03*
X157572500Y-80010000D03*
%TD*%
D11*
%TO.C,LS1*%
X138430000Y-114300000D03*
X151430000Y-114300000D03*
%TD*%
D12*
%TO.C,S1*%
X147550000Y-124430000D03*
X144550000Y-124430000D03*
D13*
X148300000Y-122680000D03*
X145300000Y-122680000D03*
X143800000Y-122680000D03*
D14*
X149700000Y-123380000D03*
X149700000Y-125480000D03*
X142400000Y-125480000D03*
X142400000Y-123380000D03*
%TD*%
D15*
%TO.C,R1*%
X146050000Y-76200000D03*
X142950000Y-76200000D03*
%TD*%
D16*
%TO.C,C2*%
X155525000Y-83820000D03*
X152400000Y-83820000D03*
%TD*%
D17*
%TO.C,D5*%
X171250000Y-99695000D03*
X168275000Y-99695000D03*
%TD*%
D18*
%TO.C,C1*%
X147027500Y-83820000D03*
X150152500Y-83820000D03*
%TD*%
D19*
%TO.C,R6*%
X168275000Y-95250000D03*
X171375000Y-95250000D03*
%TD*%
D20*
%TO.C,BT1*%
X159857500Y-97790000D03*
X130457500Y-97790000D03*
%TD*%
D21*
%TO.C,U1*%
X137247500Y-77210000D03*
X137247500Y-78010000D03*
X137247500Y-78810000D03*
X137247500Y-79610000D03*
X137247500Y-80410000D03*
X137247500Y-81210000D03*
X137247500Y-82010000D03*
X137247500Y-82810000D03*
D22*
X135797500Y-84260000D03*
X134997500Y-84260000D03*
X134197500Y-84260000D03*
X133397500Y-84260000D03*
X132597500Y-84260000D03*
X131797500Y-84260000D03*
X130997500Y-84260000D03*
X130197500Y-84260000D03*
D21*
X128747500Y-82810000D03*
X128747500Y-82010000D03*
X128747500Y-81210000D03*
X128747500Y-80410000D03*
X128747500Y-79610000D03*
X128747500Y-78810000D03*
X128747500Y-78010000D03*
X128747500Y-77210000D03*
D22*
X130197500Y-75760000D03*
X130997500Y-75760000D03*
X131797500Y-75760000D03*
X132597500Y-75760000D03*
X133397500Y-75760000D03*
X134197500Y-75760000D03*
X134997500Y-75760000D03*
X135797500Y-75760000D03*
%TD*%
M02*
