%TF.GenerationSoftware,KiCad,Pcbnew,(6.0.0)*%
%TF.CreationDate,2022-03-26T12:46:50-04:00*%
%TF.ProjectId,old,6f6c642e-6b69-4636-9164-5f7063625858,rev?*%
%TF.SameCoordinates,Original*%
%TF.FileFunction,Copper,L1,Top*%
%TF.FilePolarity,Positive*%
%FSLAX46Y46*%
G04 Gerber Fmt 4.6, Leading zero omitted, Abs format (unit mm)*
G04 Created by KiCad (PCBNEW (6.0.0)) date 2022-03-26 12:46:50*
%MOMM*%
%LPD*%
G01*
G04 APERTURE LIST*
G04 Aperture macros list*
%AMRoundRect*
0 Rectangle with rounded corners*
0 $1 Rounding radius*
0 $2 $3 $4 $5 $6 $7 $8 $9 X,Y pos of 4 corners*
0 Add a 4 corners polygon primitive as box body*
4,1,4,$2,$3,$4,$5,$6,$7,$8,$9,$2,$3,0*
0 Add four circle primitives for the rounded corners*
1,1,$1+$1,$2,$3*
1,1,$1+$1,$4,$5*
1,1,$1+$1,$6,$7*
1,1,$1+$1,$8,$9*
0 Add four rect primitives between the rounded corners*
20,1,$1+$1,$2,$3,$4,$5,0*
20,1,$1+$1,$4,$5,$6,$7,0*
20,1,$1+$1,$6,$7,$8,$9,0*
20,1,$1+$1,$8,$9,$2,$3,0*%
G04 Aperture macros list end*
%TA.AperFunction,SMDPad,CuDef*%
%ADD10R,2.100000X1.400000*%
%TD*%
%TA.AperFunction,SMDPad,CuDef*%
%ADD11R,1.580000X1.400000*%
%TD*%
%TA.AperFunction,SMDPad,CuDef*%
%ADD12RoundRect,0.250000X-0.400000X-0.625000X0.400000X-0.625000X0.400000X0.625000X-0.400000X0.625000X0*%
%TD*%
%TA.AperFunction,SMDPad,CuDef*%
%ADD13RoundRect,0.250001X-0.462499X-0.624999X0.462499X-0.624999X0.462499X0.624999X-0.462499X0.624999X0*%
%TD*%
%TA.AperFunction,SMDPad,CuDef*%
%ADD14RoundRect,0.250000X0.400000X0.625000X-0.400000X0.625000X-0.400000X-0.625000X0.400000X-0.625000X0*%
%TD*%
%TA.AperFunction,ViaPad*%
%ADD15C,0.800000*%
%TD*%
%TA.AperFunction,Conductor*%
%ADD16C,0.250000*%
%TD*%
G04 APERTURE END LIST*
D10*
%TO.P,SW3,4,2*%
%TO.N,GND*%
X177797500Y-120360000D03*
D11*
%TO.P,SW3,3*%
%TO.N,N/C*%
X168697500Y-120360000D03*
D10*
%TO.P,SW3,2*%
X177797500Y-115860000D03*
%TO.P,SW3,1,1*%
%TO.N,Net-(SW3-Pad1)*%
X168697500Y-115860000D03*
%TD*%
%TO.P,SW4,1,1*%
%TO.N,Net-(SW4-Pad1)*%
X114916750Y-115860000D03*
%TO.P,SW4,2*%
%TO.N,N/C*%
X124016750Y-115860000D03*
%TO.P,SW4,3*%
X114916750Y-120360000D03*
%TO.P,SW4,4,2*%
%TO.N,GND*%
X124016750Y-120360000D03*
%TD*%
%TO.P,SW2,1,1*%
%TO.N,Net-(SW2-Pad1)*%
X168697500Y-75220000D03*
%TO.P,SW2,2*%
%TO.N,N/C*%
X177797500Y-75220000D03*
%TO.P,SW2,3*%
X168697500Y-79720000D03*
%TO.P,SW2,4,2*%
%TO.N,GND*%
X177797500Y-79720000D03*
%TD*%
%TO.P,SW1,1,1*%
%TO.N,Net-(SW1-Pad1)*%
X114830000Y-75220000D03*
%TO.P,SW1,2*%
%TO.N,N/C*%
X123930000Y-75220000D03*
%TO.P,SW1,3*%
X114830000Y-79720000D03*
%TO.P,SW1,4,2*%
%TO.N,GND*%
X123930000Y-79720000D03*
%TD*%
D12*
%TO.P,R5,1*%
%TO.N,Net-(D4-Pad1)*%
X117807500Y-90170000D03*
%TO.P,R5,2*%
%TO.N,GND*%
X120907500Y-90170000D03*
%TD*%
%TO.P,R4,2*%
%TO.N,GND*%
X174719000Y-90001000D03*
%TO.P,R4,1*%
%TO.N,Net-(D3-Pad1)*%
X171619000Y-90001000D03*
%TD*%
D13*
%TO.P,D3,2,A*%
%TO.N,Net-(D3-Pad2)*%
X174679000Y-84921000D03*
%TO.P,D3,1,K*%
%TO.N,Net-(D3-Pad1)*%
X171704000Y-84921000D03*
%TD*%
%TO.P,D4,1,K*%
%TO.N,Net-(D4-Pad1)*%
X117892500Y-85090000D03*
%TO.P,D4,2,A*%
%TO.N,Net-(D4-Pad2)*%
X120867500Y-85090000D03*
%TD*%
D12*
%TO.P,R3,1*%
%TO.N,Net-(D2-Pad1)*%
X171652000Y-105410000D03*
%TO.P,R3,2*%
%TO.N,GND*%
X174752000Y-105410000D03*
%TD*%
D14*
%TO.P,R2,1*%
%TO.N,GND*%
X120907500Y-105410000D03*
%TO.P,R2,2*%
%TO.N,Net-(D1-Pad1)*%
X117807500Y-105410000D03*
%TD*%
D13*
%TO.P,D2,1,K*%
%TO.N,Net-(D2-Pad1)*%
X171737000Y-110490000D03*
%TO.P,D2,2,A*%
%TO.N,Net-(D2-Pad2)*%
X174712000Y-110490000D03*
%TD*%
%TO.P,D1,1,K*%
%TO.N,Net-(D1-Pad1)*%
X117892500Y-110490000D03*
%TO.P,D1,2,A*%
%TO.N,Net-(D1-Pad2)*%
X120867500Y-110490000D03*
%TD*%
D15*
%TO.N,VCC*%
X146050000Y-77470000D03*
%TO.N,Net-(D3-Pad2)*%
X173990000Y-82550000D03*
%TO.N,GND*%
X177800000Y-77470000D03*
X123190000Y-118110000D03*
X177800000Y-118110000D03*
X173990000Y-107950000D03*
X119380000Y-107950000D03*
X123190000Y-77470000D03*
X173990000Y-87630000D03*
X119380000Y-87630000D03*
%TO.N,Net-(D1-Pad2)*%
X135847998Y-78740000D03*
%TO.N,Net-(D2-Pad2)*%
X139700000Y-83820000D03*
X139700000Y-80734500D03*
X139700000Y-79285500D03*
X140970000Y-86360000D03*
X139700000Y-77470000D03*
%TO.N,Net-(D4-Pad2)*%
X133350000Y-86360000D03*
%TO.N,VCC*%
X138430000Y-85090000D03*
X138617345Y-79948776D03*
%TO.N,Net-(SW1-Pad1)*%
X133350000Y-81280000D03*
%TO.N,Net-(SW2-Pad1)*%
X137160000Y-87630000D03*
%TO.N,Net-(SW3-Pad1)*%
X137160000Y-91440000D03*
%TO.N,Net-(SW4-Pad1)*%
X130922000Y-86360000D03*
%TD*%
D16*
%TO.N,VCC*%
X138678569Y-80010000D02*
X143510000Y-80010000D01*
X143510000Y-80010000D02*
X146050000Y-77470000D01*
X138617345Y-79948776D02*
X138678569Y-80010000D01*
%TO.N,Net-(D3-Pad2)*%
X174625000Y-82550000D02*
X173990000Y-82550000D01*
X174625000Y-84867000D02*
X174625000Y-82550000D01*
X174679000Y-84921000D02*
X174625000Y-84867000D01*
%TO.N,Net-(SW1-Pad1)*%
X125730000Y-73660000D02*
X133350000Y-81280000D01*
X115707500Y-75220000D02*
X117267500Y-73660000D01*
X117267500Y-73660000D02*
X125730000Y-73660000D01*
%TO.N,GND*%
X123930000Y-78210000D02*
X123190000Y-77470000D01*
X123930000Y-79720000D02*
X123930000Y-78210000D01*
X124016750Y-118936750D02*
X123190000Y-118110000D01*
X124016750Y-120360000D02*
X124016750Y-118936750D01*
X177797500Y-118112500D02*
X177800000Y-118110000D01*
X177797500Y-120360000D02*
X177797500Y-118112500D01*
X174752000Y-107188000D02*
X173990000Y-107950000D01*
X174752000Y-105410000D02*
X174752000Y-107188000D01*
X174719000Y-88359000D02*
X173990000Y-87630000D01*
X174719000Y-90001000D02*
X174719000Y-88359000D01*
X177797500Y-77472500D02*
X177800000Y-77470000D01*
X177797500Y-79720000D02*
X177797500Y-77472500D01*
X120907500Y-106422500D02*
X119380000Y-107950000D01*
X120907500Y-105410000D02*
X120907500Y-106422500D01*
X120907500Y-89157500D02*
X119380000Y-87630000D01*
X120907500Y-90170000D02*
X120907500Y-89157500D01*
%TO.N,Net-(D2-Pad2)*%
X155444500Y-86360000D02*
X173224500Y-104140000D01*
X173224500Y-109002500D02*
X174712000Y-110490000D01*
X140970000Y-86360000D02*
X155444500Y-86360000D01*
X173224500Y-104140000D02*
X173224500Y-109002500D01*
%TO.N,Net-(SW4-Pad1)*%
X115707500Y-101574500D02*
X130922000Y-86360000D01*
X115707500Y-115860000D02*
X115707500Y-101574500D01*
%TO.N,Net-(D1-Pad1)*%
X117807500Y-110405000D02*
X117892500Y-110490000D01*
X117807500Y-105410000D02*
X117807500Y-110405000D01*
%TO.N,Net-(D1-Pad2)*%
X135847998Y-95509502D02*
X135847998Y-78740000D01*
X120867500Y-110490000D02*
X135847998Y-95509502D01*
%TO.N,Net-(D2-Pad1)*%
X171737000Y-105495000D02*
X171652000Y-105410000D01*
X171737000Y-110490000D02*
X171737000Y-105495000D01*
%TO.N,Net-(D2-Pad2)*%
X139700000Y-77470000D02*
X139700000Y-79285500D01*
X139700000Y-80734500D02*
X139700000Y-83820000D01*
%TO.N,Net-(D3-Pad1)*%
X171704000Y-84921000D02*
X171704000Y-89916000D01*
X171704000Y-89916000D02*
X171619000Y-90001000D01*
%TO.N,Net-(D4-Pad1)*%
X117807500Y-85175000D02*
X117892500Y-85090000D01*
X117807500Y-90170000D02*
X117807500Y-85175000D01*
%TO.N,Net-(D4-Pad2)*%
X132080000Y-85090000D02*
X133350000Y-86360000D01*
X120867500Y-85090000D02*
X132080000Y-85090000D01*
%TO.N,VCC*%
X138617345Y-79948776D02*
X138430000Y-80136121D01*
X138430000Y-80136121D02*
X138430000Y-85090000D01*
%TO.N,Net-(SW2-Pad1)*%
X169047500Y-75220000D02*
X149570000Y-75220000D01*
X149570000Y-75220000D02*
X137160000Y-87630000D01*
%TO.N,Net-(SW3-Pad1)*%
X169047500Y-115860000D02*
X161580000Y-115860000D01*
X161580000Y-115860000D02*
X137160000Y-91440000D01*
%TD*%
M02*
